<svg aria-hidden="true" style="position: absolute; width: 0; height: 0; overflow: hidden;" version="1.1" xmlns="http://www.w3.org/2000/svg" xmlns:xlink="http://www.w3.org/1999/xlink">
<defs>
<symbol id="icon-chevron-down" viewBox="0 0 32 32">
<path d="M7.226 12.077c0.698-0.714 1.669-0.77 2.522 0l6.253 5.995 6.253-5.995c0.853-0.77 1.826-0.714 2.518 0 0.698 0.712 0.653 1.915 0 2.584-0.65 0.669-7.512 7.203-7.512 7.203-0.347 0.357-0.803 0.536-1.259 0.536s-0.912-0.179-1.262-0.536c0 0-6.859-6.534-7.512-7.203s-0.698-1.872 0-2.584z"></path>
</symbol>
<symbol id="icon-alerts" viewBox="0 0 44 32">
<path fill="#fa0f0c" style="fill: var(--color1, #fa0f0c)" opacity="0.6" d="M22.144 22.166c1.183 0 2.143 0.959 2.143 2.143v4.762c0 1.184-0.959 2.143-2.143 2.143s-2.143-0.959-2.143-2.143v-4.762c0-1.184 0.959-2.143 2.143-2.143z"></path>
<path fill="#6a1580" style="fill: var(--color2, #6a1580)" opacity="0.6" d="M29.173 15.767l-15.136-0.042c-1.871-0.005-3.383-1.525-3.378-3.397 0.005-1.87 1.527-3.382 3.397-3.377l15.137 0.040c1.871 0.006 3.383 1.526 3.378 3.397s-1.527 3.383-3.398 3.378z"></path>
<path fill="#6a1580" style="fill: var(--color2, #6a1580)" opacity="0.6" d="M24.113 3.308l0.015 2.562c0.018 1.194-0.934 2.167-2.128 2.173-1.194 0.005-2.178-0.958-2.196-2.152l-0.017-2.562c-0.019-1.194 0.935-2.167 2.129-2.173s2.178 0.958 2.197 2.152z"></path>
<path fill="#0093b6" style="fill: var(--color3, #0093b6)" opacity="0.6" d="M26.189 13.489l4.701 14.388c0.581 1.779 2.493 2.749 4.272 2.168 1.778-0.581 2.748-2.494 2.167-4.272l-4.7-14.389c-0.582-1.778-2.494-2.749-4.272-2.168s-2.749 2.494-2.168 4.273z"></path>
<path fill="#2b589f" style="fill: var(--color4, #2b589f)" opacity="0.6" d="M17.327 13.489l-4.701 14.388c-0.581 1.779-2.493 2.749-4.272 2.168-1.778-0.581-2.748-2.494-2.167-4.272l4.7-14.389c0.582-1.778 2.494-2.749 4.272-2.168s2.749 2.494 2.168 4.273z"></path>
</symbol>
<symbol id="icon-businessMenager" viewBox="0 0 41 32">
<path fill="#fa0f0c" style="fill: var(--color1, #fa0f0c)" opacity="0.6" d="M4.644 14.334c-0.443-0.899-0.072-1.987 0.827-2.429l22.559-11.103c0.899-0.443 1.987-0.072 2.43 0.827s0.072 1.987-0.827 2.429l-22.559 11.103c-0.899 0.443-1.987 0.072-2.429-0.827z"></path>
<path fill="#2b589f" style="fill: var(--color4, #2b589f)" opacity="0.6" d="M25.943 27.048l-0.022-14.277c-0.003-1.764 1.425-3.196 3.191-3.2 1.764-0.002 3.197 1.426 3.199 3.19l0.022 14.277c0.003 1.765-1.426 3.197-3.19 3.2-1.765 0.003-3.197-1.426-3.2-3.19z"></path>
<path fill="#0093b6" style="fill: var(--color3, #0093b6)" opacity="0.6" d="M18.229 27.048l-0.022-10.647c-0.003-1.764 1.426-3.196 3.191-3.2 1.764-0.002 3.197 1.426 3.199 3.19l0.022 10.647c0.003 1.765-1.426 3.197-3.19 3.2-1.765 0.003-3.197-1.426-3.2-3.19z"></path>
<path fill="#6a1580" style="fill: var(--color2, #6a1580)" opacity="0.6" d="M10.515 27.048l-0.022-6.563c-0.003-1.764 1.425-3.196 3.191-3.2 1.764-0.002 3.197 1.426 3.199 3.19l0.022 6.563c0.003 1.765-1.426 3.197-3.19 3.2-1.765 0.003-3.197-1.426-3.2-3.19z"></path>
<path fill="#6a1580" style="fill: var(--color2, #6a1580)" opacity="0.6" d="M2.801 27.048l-0.022-2.933c-0.003-1.764 1.425-3.196 3.191-3.2 1.764-0.002 3.197 1.426 3.199 3.19l0.022 2.933c0.003 1.765-1.426 3.197-3.19 3.2-1.765 0.003-3.197-1.426-3.2-3.19z"></path>
</symbol>
<symbol id="icon-CompetitionResearch" viewBox="0 0 31 32">
<path fill="#6a1580" style="fill: var(--color2, #6a1580)" opacity="0.6" d="M20.197 16.956l9.539 9.712c1.178 1.2 1.162 3.128-0.038 4.308-1.2 1.178-3.13 1.161-4.308-0.039l-9.54-9.71c-1.179-1.201-1.162-3.13 0.039-4.309s3.13-1.162 4.309 0.038z"></path>
<path fill="#0093b6" style="fill: var(--color3, #0093b6)" opacity="0.6" d="M13.103 5.347c-4.284 0-7.756 3.473-7.756 7.756s3.473 7.756 7.756 7.756c4.284 0 7.756-3.473 7.756-7.756s-3.473-7.756-7.756-7.756zM0 13.103c0-7.237 5.867-13.103 13.103-13.103s13.103 5.867 13.103 13.103c0 7.237-5.867 13.103-13.103 13.103s-13.103-5.867-13.103-13.103z"></path>
<path fill="#fa0f0c" style="fill: var(--color1, #fa0f0c)" opacity="0.6" d="M10.634 11.377c-0.784 0.675-0.872 1.857-0.197 2.641 0.578 0.671 0.502 1.684-0.169 2.262s-1.684 0.502-2.262-0.169c-1.831-2.126-1.591-5.334 0.535-7.165 0.671-0.578 1.684-0.502 2.262 0.169s0.502 1.684-0.169 2.262z"></path>
</symbol>
<symbol id="icon-lounchAutomation" viewBox="0 0 33 32">
<path fill="#0093b6" style="fill: var(--color3, #0093b6)" opacity="0.6" d="M21.102 19.826l0.151-10.877c0.019-1.344 1.123-2.418 2.468-2.4 1.344 0.019 2.419 1.124 2.4 2.468l-0.151 10.877c-0.018 1.345-1.124 2.419-2.468 2.401s-2.419-1.124-2.4-2.468z"></path>
<path fill="#0093b6" style="fill: var(--color3, #0093b6)" opacity="0.6" d="M15.251 26.073c-0.819-1.119-0.575-2.69 0.544-3.509l6.082-4.45c1.119-0.819 2.69-0.575 3.509 0.544s0.575 2.69-0.544 3.509l-6.082 4.45c-1.119 0.819-2.69 0.575-3.509-0.544z"></path>
<path fill="#2b589f" style="fill: var(--color4, #2b589f)" opacity="0.6" d="M6.512 16.883c-1.098-0.847-1.303-2.423-0.456-3.522l4.6-5.97c0.847-1.098 2.423-1.303 3.522-0.456s1.303 2.423 0.456 3.522l-4.6 5.97c-0.847 1.099-2.423 1.303-3.522 0.456z"></path>
<path fill="#6a1580" style="fill: var(--color2, #6a1580)" opacity="0.6" d="M12.882 6.331l10.875 0.232c1.344 0.029 2.41 1.141 2.382 2.485-0.029 1.344-1.142 2.411-2.486 2.382l-10.875-0.23c-1.344-0.029-2.411-1.142-2.382-2.486s1.142-2.411 2.486-2.383z"></path>
<path fill="#fa0f0c" style="fill: var(--color1, #fa0f0c)" opacity="0.6" d="M7.089 30.794c-0.558-0.562-0.555-1.471 0.007-2.029l2.644-2.626c0.562-0.558 1.471-0.555 2.029 0.007s0.555 1.471-0.007 2.029l-2.644 2.626c-0.562 0.558-1.471 0.555-2.029-0.007z"></path>
<path fill="#fa0f0c" style="fill: var(--color1, #fa0f0c)" opacity="0.6" d="M1.011 24.314c-0.558-0.562-0.555-1.471 0.007-2.029l2.644-2.626c0.562-0.558 1.471-0.555 2.029 0.007s0.555 1.471-0.007 2.029l-2.644 2.626c-0.562 0.558-1.471 0.555-2.029-0.007z"></path>
<path fill="#fa0f0c" style="fill: var(--color1, #fa0f0c)" opacity="0.6" d="M1.71 29.699c-0.558-0.562-0.555-1.471 0.007-2.029l4.445-4.414c0.562-0.558 1.471-0.555 2.029 0.007s0.555 1.471-0.007 2.029l-4.445 4.414c-0.562 0.558-1.471 0.555-2.029-0.007z"></path>
</symbol>
<symbol id="icon-ourClients" viewBox="0 0 47 32">
<path fill="#2b589f" style="fill: var(--color4, #2b589f)" opacity="0.6" d="M23.038 24.186c0 4.316-3.494 7.814-7.803 7.814s-7.803-3.498-7.803-7.814c0-4.316 3.494-7.814 7.803-7.814s7.803 3.498 7.803 7.814z"></path>
<path fill="#fa0f0c" style="fill: var(--color1, #fa0f0c)" opacity="0.6" d="M20.276 6.667l-6.821 16.222c-0.842 2.005-3.149 2.946-5.151 2.102-2.002-0.844-2.941-3.154-2.098-5.158l6.82-16.223c0.844-2.005 3.15-2.946 5.152-2.102 2.002 0.845 2.942 3.155 2.098 5.16z"></path>
<path fill="#0093b6" style="fill: var(--color3, #0093b6)" opacity="0.6" d="M43.846 24.186c0 4.316-3.494 7.814-7.803 7.814s-7.803-3.498-7.803-7.814c0-4.316 3.494-7.814 7.803-7.814s7.803 3.498 7.803 7.814z"></path>
<path fill="#6a1580" style="fill: var(--color2, #6a1580)" opacity="0.6" d="M33.865 23.071l6.448-16.375c0.796-2.025-0.196-4.31-2.217-5.109-2.021-0.797-4.305 0.197-5.102 2.22l-6.447 16.374c-0.797 2.024 0.196 4.313 2.217 5.111s4.304-0.196 5.101-2.22z"></path>
</symbol>
<symbol id="icon-productMenager" viewBox="0 0 37 32">
<path fill="#6a1580" style="fill: var(--color2, #6a1580)" opacity="0.6" d="M26.541 8.701l-9.501 4.887c-1.174 0.604-1.637 2.045-1.033 3.22 0.604 1.174 2.046 1.636 3.22 1.032l9.502-4.886c1.174-0.604 1.637-2.046 1.033-3.22s-2.046-1.637-3.221-1.033z"></path>
<path fill="#6a1580" style="fill: var(--color2, #6a1580)" opacity="0.6" d="M26.541 19.616l-9.501 4.887c-1.174 0.604-1.637 2.045-1.033 3.22 0.604 1.174 2.046 1.636 3.22 1.032l9.502-4.886c1.174-0.604 1.637-2.046 1.033-3.22s-2.046-1.637-3.221-1.033z"></path>
<path fill="#0093b6" style="fill: var(--color3, #0093b6)" opacity="0.6" d="M19.258 24.458l-9.274-5.306c-1.146-0.655-2.607-0.259-3.263 0.887-0.655 1.146-0.258 2.607 0.888 3.263l9.273 5.307c1.146 0.656 2.607 0.258 3.263-0.888s0.258-2.607-0.888-3.264z"></path>
<path fill="#6a1580" style="fill: var(--color2, #6a1580)" opacity="0.6" d="M17.305 3.244l-9.501 4.887c-1.174 0.604-1.637 2.045-1.033 3.22 0.604 1.174 2.046 1.636 3.22 1.032l9.502-4.886c1.174-0.604 1.637-2.046 1.033-3.22s-2.046-1.637-3.22-1.033z"></path>
<path fill="#fa0f0c" style="fill: var(--color1, #fa0f0c)" opacity="0.6" d="M20.902 7.406l-5.724 2.945c-0.707 0.364-0.986 1.232-0.622 1.94s1.233 0.986 1.94 0.622l5.725-2.944c0.708-0.364 0.986-1.233 0.622-1.94s-1.233-0.986-1.94-0.623z"></path>
<path fill="#fa0f0c" style="fill: var(--color1, #fa0f0c)" opacity="0.6" d="M11.995 14.063l-0.034 1.999c-0.004 0.766 0.613 1.39 1.379 1.395s1.39-0.614 1.394-1.379l0.035-1.999c0.004-0.766-0.613-1.39-1.379-1.395s-1.39 0.613-1.395 1.379z"></path>
<path fill="#0093b6" style="fill: var(--color3, #0093b6)" opacity="0.6" d="M6.341 21.206l-0.016-10.685c-0.002-1.32 1.067-2.392 2.388-2.395 1.32-0.001 2.392 1.068 2.394 2.388l0.016 10.685c0.002 1.321-1.067 2.392-2.387 2.395s-2.393-1.067-2.395-2.388z"></path>
<path fill="#0093b6" style="fill: var(--color3, #0093b6)" opacity="0.6" d="M15.576 26.663l-0.016-10.685c-0.002-1.32 1.067-2.392 2.388-2.395 1.32-0.001 2.392 1.068 2.394 2.388l0.016 10.685c0.002 1.321-1.067 2.392-2.387 2.395s-2.393-1.067-2.395-2.388z"></path>
<path fill="#6a1580" style="fill: var(--color2, #6a1580)" opacity="0.6" d="M25.231 21.626l-0.016-10.685c-0.002-1.32 1.067-2.392 2.388-2.395 1.321-0.001 2.392 1.067 2.394 2.387l0.016 10.685c0.002 1.321-1.067 2.392-2.387 2.395s-2.393-1.067-2.395-2.388z"></path>
</symbol>
<symbol id="icon-wallet" viewBox="0 0 32 32">
<path fill="#6a1580" style="fill: var(--color2, #6a1580)" opacity="0.6" d="M12.627 9.99l-0.034 12.122c-0.004 1.498-1.221 2.709-2.72 2.705-1.498-0.004-2.709-1.223-2.704-2.721l0.032-12.123c0.005-1.498 1.223-2.71 2.72-2.705s2.71 1.223 2.706 2.721z"></path>
<path fill="#0093b6" style="fill: var(--color3, #0093b6)" opacity="0.6" d="M24.832 9.99l-0.034 12.122c-0.004 1.498-1.221 2.709-2.72 2.705-1.498-0.004-2.709-1.223-2.704-2.721l0.032-12.123c0.005-1.498 1.223-2.71 2.72-2.705s2.71 1.223 2.706 2.721z"></path>
<path fill="#0093b6" style="fill: var(--color3, #0093b6)" opacity="0.6" d="M9.803 12.613l12.122-0.005c1.498-0 2.712-1.215 2.712-2.714s-1.216-2.712-2.714-2.711l-12.123 0.004c-1.498 0.001-2.713 1.216-2.712 2.714s1.216 2.713 2.715 2.712z"></path>
<path fill="#2b589f" style="fill: var(--color4, #2b589f)" opacity="0.6" d="M9.803 24.817l12.122-0.005c1.498-0 2.712-1.215 2.712-2.714s-1.216-2.712-2.714-2.711l-12.123 0.004c-1.498 0.001-2.713 1.216-2.712 2.714s1.216 2.713 2.715 2.712z"></path>
<path fill="#fa0f0c" style="fill: var(--color1, #fa0f0c)" opacity="0.6" d="M16.781 16.209c0-0.948 0.768-1.716 1.716-1.716h7.629c0.948 0 1.716 0.768 1.716 1.716s-0.768 1.716-1.716 1.716h-7.629c-0.948 0-1.716-0.768-1.716-1.716z"></path>
</symbol>
</defs>
</svg>
