<!-- Generated by IcoMoon.io -->
<svg version="1.1" xmlns="http://www.w3.org/2000/svg" width="44" height="32" viewBox="0 0 44 32">
<title>alerts</title>
<path fill="#fa0f0c" opacity="0.6" d="M22.144 22.166c1.183 0 2.143 0.959 2.143 2.143v4.762c0 1.184-0.959 2.143-2.143 2.143s-2.143-0.959-2.143-2.143v-4.762c0-1.184 0.959-2.143 2.143-2.143z"></path>
<path fill="#6a1580" opacity="0.6" d="M29.173 15.767l-15.136-0.042c-1.871-0.005-3.383-1.525-3.378-3.397 0.005-1.87 1.527-3.382 3.397-3.377l15.137 0.040c1.871 0.006 3.383 1.526 3.378 3.397s-1.527 3.383-3.398 3.378z"></path>
<path fill="#6a1580" opacity="0.6" d="M24.113 3.308l0.015 2.562c0.018 1.194-0.934 2.167-2.128 2.173-1.194 0.005-2.178-0.958-2.196-2.152l-0.017-2.562c-0.019-1.194 0.935-2.167 2.129-2.173s2.178 0.958 2.197 2.152z"></path>
<path fill="#0093b6" opacity="0.6" d="M26.189 13.489l4.701 14.388c0.581 1.779 2.493 2.749 4.272 2.168 1.778-0.581 2.748-2.494 2.167-4.272l-4.7-14.389c-0.582-1.778-2.494-2.749-4.272-2.168s-2.749 2.494-2.168 4.273z"></path>
<path fill="#2b589f" opacity="0.6" d="M17.327 13.489l-4.701 14.388c-0.581 1.779-2.493 2.749-4.272 2.168-1.778-0.581-2.748-2.494-2.167-4.272l4.7-14.389c0.582-1.778 2.494-2.749 4.272-2.168s2.749 2.494 2.168 4.273z"></path>
</svg>
