<!-- Generated by IcoMoon.io -->
<svg version="1.1" xmlns="http://www.w3.org/2000/svg" width="41" height="32" viewBox="0 0 41 32">
<title>businessMenager</title>
<path fill="#fa0f0c" opacity="0.6" d="M4.644 14.334c-0.443-0.899-0.072-1.987 0.827-2.429l22.559-11.103c0.899-0.443 1.987-0.072 2.43 0.827s0.072 1.987-0.827 2.429l-22.559 11.103c-0.899 0.443-1.987 0.072-2.429-0.827z"></path>
<path fill="#2b589f" opacity="0.6" d="M25.943 27.048l-0.022-14.277c-0.003-1.764 1.425-3.196 3.191-3.2 1.764-0.002 3.197 1.426 3.199 3.19l0.022 14.277c0.003 1.765-1.426 3.197-3.19 3.2-1.765 0.003-3.197-1.426-3.2-3.19z"></path>
<path fill="#0093b6" opacity="0.6" d="M18.229 27.048l-0.022-10.647c-0.003-1.764 1.426-3.196 3.191-3.2 1.764-0.002 3.197 1.426 3.199 3.19l0.022 10.647c0.003 1.765-1.426 3.197-3.19 3.2-1.765 0.003-3.197-1.426-3.2-3.19z"></path>
<path fill="#6a1580" opacity="0.6" d="M10.515 27.048l-0.022-6.563c-0.003-1.764 1.425-3.196 3.191-3.2 1.764-0.002 3.197 1.426 3.199 3.19l0.022 6.563c0.003 1.765-1.426 3.197-3.19 3.2-1.765 0.003-3.197-1.426-3.2-3.19z"></path>
<path fill="#6a1580" opacity="0.6" d="M2.801 27.048l-0.022-2.933c-0.003-1.764 1.425-3.196 3.191-3.2 1.764-0.002 3.197 1.426 3.199 3.19l0.022 2.933c0.003 1.765-1.426 3.197-3.19 3.2-1.765 0.003-3.197-1.426-3.2-3.19z"></path>
</svg>
