<!-- Generated by IcoMoon.io -->
<svg version="1.1" xmlns="http://www.w3.org/2000/svg" width="33" height="32" viewBox="0 0 33 32">
<title>lounchAutomation</title>
<path fill="#0093b6" opacity="0.6" d="M21.102 19.826l0.151-10.877c0.019-1.344 1.123-2.418 2.468-2.4 1.344 0.019 2.419 1.124 2.4 2.468l-0.151 10.877c-0.018 1.345-1.124 2.419-2.468 2.401s-2.419-1.124-2.4-2.468z"></path>
<path fill="#0093b6" opacity="0.6" d="M15.251 26.073c-0.819-1.119-0.575-2.69 0.544-3.509l6.082-4.45c1.119-0.819 2.69-0.575 3.509 0.544s0.575 2.69-0.544 3.509l-6.082 4.45c-1.119 0.819-2.69 0.575-3.509-0.544z"></path>
<path fill="#2b589f" opacity="0.6" d="M6.512 16.883c-1.098-0.847-1.303-2.423-0.456-3.522l4.6-5.97c0.847-1.098 2.423-1.303 3.522-0.456s1.303 2.423 0.456 3.522l-4.6 5.97c-0.847 1.099-2.423 1.303-3.522 0.456z"></path>
<path fill="#6a1580" opacity="0.6" d="M12.882 6.331l10.875 0.232c1.344 0.029 2.41 1.141 2.382 2.485-0.029 1.344-1.142 2.411-2.486 2.382l-10.875-0.23c-1.344-0.029-2.411-1.142-2.382-2.486s1.142-2.411 2.486-2.383z"></path>
<path fill="#fa0f0c" opacity="0.6" d="M7.089 30.794c-0.558-0.562-0.555-1.471 0.007-2.029l2.644-2.626c0.562-0.558 1.471-0.555 2.029 0.007s0.555 1.471-0.007 2.029l-2.644 2.626c-0.562 0.558-1.471 0.555-2.029-0.007z"></path>
<path fill="#fa0f0c" opacity="0.6" d="M1.011 24.314c-0.558-0.562-0.555-1.471 0.007-2.029l2.644-2.626c0.562-0.558 1.471-0.555 2.029 0.007s0.555 1.471-0.007 2.029l-2.644 2.626c-0.562 0.558-1.471 0.555-2.029-0.007z"></path>
<path fill="#fa0f0c" opacity="0.6" d="M1.71 29.699c-0.558-0.562-0.555-1.471 0.007-2.029l4.445-4.414c0.562-0.558 1.471-0.555 2.029 0.007s0.555 1.471-0.007 2.029l-4.445 4.414c-0.562 0.558-1.471 0.555-2.029-0.007z"></path>
</svg>
