<!-- Generated by IcoMoon.io -->
<svg version="1.1" xmlns="http://www.w3.org/2000/svg" width="47" height="32" viewBox="0 0 47 32">
<title>ourClients</title>
<path fill="#2b589f" opacity="0.6" d="M23.038 24.186c0 4.316-3.494 7.814-7.803 7.814s-7.803-3.498-7.803-7.814c0-4.316 3.494-7.814 7.803-7.814s7.803 3.498 7.803 7.814z"></path>
<path fill="#fa0f0c" opacity="0.6" d="M20.276 6.667l-6.821 16.222c-0.842 2.005-3.149 2.946-5.151 2.102-2.002-0.844-2.941-3.154-2.098-5.158l6.82-16.223c0.844-2.005 3.15-2.946 5.152-2.102 2.002 0.845 2.942 3.155 2.098 5.16z"></path>
<path fill="#0093b6" opacity="0.6" d="M43.846 24.186c0 4.316-3.494 7.814-7.803 7.814s-7.803-3.498-7.803-7.814c0-4.316 3.494-7.814 7.803-7.814s7.803 3.498 7.803 7.814z"></path>
<path fill="#6a1580" opacity="0.6" d="M33.865 23.071l6.448-16.375c0.796-2.025-0.196-4.31-2.217-5.109-2.021-0.797-4.305 0.197-5.102 2.22l-6.447 16.374c-0.797 2.024 0.196 4.313 2.217 5.111s4.304-0.196 5.101-2.22z"></path>
</svg>
