<!-- Generated by IcoMoon.io -->
<svg version="1.1" xmlns="http://www.w3.org/2000/svg" width="37" height="32" viewBox="0 0 37 32">
<title>productMenager</title>
<path fill="#6a1580" opacity="0.6" d="M26.541 8.701l-9.501 4.887c-1.174 0.604-1.637 2.045-1.033 3.22 0.604 1.174 2.046 1.636 3.22 1.032l9.502-4.886c1.174-0.604 1.637-2.046 1.033-3.22s-2.046-1.637-3.221-1.033z"></path>
<path fill="#6a1580" opacity="0.6" d="M26.541 19.616l-9.501 4.887c-1.174 0.604-1.637 2.045-1.033 3.22 0.604 1.174 2.046 1.636 3.22 1.032l9.502-4.886c1.174-0.604 1.637-2.046 1.033-3.22s-2.046-1.637-3.221-1.033z"></path>
<path fill="#0093b6" opacity="0.6" d="M19.258 24.458l-9.274-5.306c-1.146-0.655-2.607-0.259-3.263 0.887-0.655 1.146-0.258 2.607 0.888 3.263l9.273 5.307c1.146 0.656 2.607 0.258 3.263-0.888s0.258-2.607-0.888-3.264z"></path>
<path fill="#6a1580" opacity="0.6" d="M17.305 3.244l-9.501 4.887c-1.174 0.604-1.637 2.045-1.033 3.22 0.604 1.174 2.046 1.636 3.22 1.032l9.502-4.886c1.174-0.604 1.637-2.046 1.033-3.22s-2.046-1.637-3.22-1.033z"></path>
<path fill="#fa0f0c" opacity="0.6" d="M20.902 7.406l-5.724 2.945c-0.707 0.364-0.986 1.232-0.622 1.94s1.233 0.986 1.94 0.622l5.725-2.944c0.708-0.364 0.986-1.233 0.622-1.94s-1.233-0.986-1.94-0.623z"></path>
<path fill="#fa0f0c" opacity="0.6" d="M11.995 14.063l-0.034 1.999c-0.004 0.766 0.613 1.39 1.379 1.395s1.39-0.614 1.394-1.379l0.035-1.999c0.004-0.766-0.613-1.39-1.379-1.395s-1.39 0.613-1.395 1.379z"></path>
<path fill="#0093b6" opacity="0.6" d="M6.341 21.206l-0.016-10.685c-0.002-1.32 1.067-2.392 2.388-2.395 1.32-0.001 2.392 1.068 2.394 2.388l0.016 10.685c0.002 1.321-1.067 2.392-2.387 2.395s-2.393-1.067-2.395-2.388z"></path>
<path fill="#0093b6" opacity="0.6" d="M15.576 26.663l-0.016-10.685c-0.002-1.32 1.067-2.392 2.388-2.395 1.32-0.001 2.392 1.068 2.394 2.388l0.016 10.685c0.002 1.321-1.067 2.392-2.387 2.395s-2.393-1.067-2.395-2.388z"></path>
<path fill="#6a1580" opacity="0.6" d="M25.231 21.626l-0.016-10.685c-0.002-1.32 1.067-2.392 2.388-2.395 1.321-0.001 2.392 1.067 2.394 2.387l0.016 10.685c0.002 1.321-1.067 2.392-2.387 2.395s-2.393-1.067-2.395-2.388z"></path>
</svg>
