<!-- Generated by IcoMoon.io -->
<svg version="1.1" xmlns="http://www.w3.org/2000/svg" width="32" height="32" viewBox="0 0 32 32">
<title>wallet</title>
<path fill="#6a1580" opacity="0.6" d="M12.627 9.99l-0.034 12.122c-0.004 1.498-1.221 2.709-2.72 2.705-1.498-0.004-2.709-1.223-2.704-2.721l0.032-12.123c0.005-1.498 1.223-2.71 2.72-2.705s2.71 1.223 2.706 2.721z"></path>
<path fill="#0093b6" opacity="0.6" d="M24.832 9.99l-0.034 12.122c-0.004 1.498-1.221 2.709-2.72 2.705-1.498-0.004-2.709-1.223-2.704-2.721l0.032-12.123c0.005-1.498 1.223-2.71 2.72-2.705s2.71 1.223 2.706 2.721z"></path>
<path fill="#0093b6" opacity="0.6" d="M9.803 12.613l12.122-0.005c1.498-0 2.712-1.215 2.712-2.714s-1.216-2.712-2.714-2.711l-12.123 0.004c-1.498 0.001-2.713 1.216-2.712 2.714s1.216 2.713 2.715 2.712z"></path>
<path fill="#2b589f" opacity="0.6" d="M9.803 24.817l12.122-0.005c1.498-0 2.712-1.215 2.712-2.714s-1.216-2.712-2.714-2.711l-12.123 0.004c-1.498 0.001-2.713 1.216-2.712 2.714s1.216 2.713 2.715 2.712z"></path>
<path fill="#fa0f0c" opacity="0.6" d="M16.781 16.209c0-0.948 0.768-1.716 1.716-1.716h7.629c0.948 0 1.716 0.768 1.716 1.716s-0.768 1.716-1.716 1.716h-7.629c-0.948 0-1.716-0.768-1.716-1.716z"></path>
</svg>
